<svg xmlns="http://www.w3.org/2000/svg" width="234.554" height="40.887" viewBox="0 0 234.554 40.887"><g id="Group_1" data-name="Group 1" transform="translate(-329.038 -300.231)"><path id="Path_429" data-name="Path 429" d="M-74.316-15.576a2.737,2.737,0,0,0-.4-1.474,3.3,3.3,0,0,0-1.056-1.056,4.852,4.852,0,0,0-1.518-.616,7.9,7.9,0,0,0-1.782-.2,7.7,7.7,0,0,0-2.64.462,5.3,5.3,0,0,0-2.156,1.43l-2.728-2.816A9.041,9.041,0,0,1-82.7-22.572a13.745,13.745,0,0,1,4.246-.66,11.8,11.8,0,0,1,3.278.462,9.209,9.209,0,0,1,2.882,1.386,6.966,6.966,0,0,1,2.046,2.332,6.869,6.869,0,0,1,.77,3.344V-1.1a23.959,23.959,0,0,1-3.85,1.078A23.857,23.857,0,0,1-78.1.44,17.915,17.915,0,0,1-81.576.11a8.75,8.75,0,0,1-2.948-1.122,6.136,6.136,0,0,1-2.068-2.134,6.534,6.534,0,0,1-.792-3.366,6.841,6.841,0,0,1,.726-3.256,6.838,6.838,0,0,1,1.914-2.266,8.207,8.207,0,0,1,2.706-1.342,11.087,11.087,0,0,1,3.1-.44,13.262,13.262,0,0,1,2.42.22,10.122,10.122,0,0,1,2.2.66Zm-3.916,5.632A4.981,4.981,0,0,0-81.488-9a3.023,3.023,0,0,0-1.144,2.442,2.551,2.551,0,0,0,.352,1.364,2.719,2.719,0,0,0,.946.924,4.32,4.32,0,0,0,1.342.506,7.843,7.843,0,0,0,1.584.154,18.112,18.112,0,0,0,2.244-.132,12.989,12.989,0,0,0,1.848-.352v-5.06A8.214,8.214,0,0,0-76.1-9.724,10.227,10.227,0,0,0-78.232-9.944ZM-57.9.44A13.778,13.778,0,0,1-61.424,0a7.886,7.886,0,0,1-2.9-1.408,6.923,6.923,0,0,1-1.958-2.464,8.2,8.2,0,0,1-.726-3.608V-22.792h4.84v15.4a3.261,3.261,0,0,0,.484,1.65A3.721,3.721,0,0,0-60.566-4.62a5.2,5.2,0,0,0,1.54.66,7.147,7.147,0,0,0,1.782.22,6.97,6.97,0,0,0,1.738-.22,7.836,7.836,0,0,0,1.562-.572v-18.26h4.8v21.34A26.405,26.405,0,0,1-53.5-.066,19.966,19.966,0,0,1-57.9.44Zm19.492,0a10.461,10.461,0,0,1-3.146-.462,6.864,6.864,0,0,1-2.574-1.452A6.671,6.671,0,0,1-45.848-4a9.947,9.947,0,0,1-.616-3.7V-28.16h4.356l.44,5.368h4.356v4.4h-4.356V-7.744A4.516,4.516,0,0,0-41.25-5.61a2.725,2.725,0,0,0,1.122,1.144A4.273,4.273,0,0,0-38.522-4q.9.088,1.914.088V.308A12.75,12.75,0,0,1-38.412.44ZM-26.4-23.232h.4a10.293,10.293,0,0,1,3.146.484,7.958,7.958,0,0,1,2.706,1.474,7.376,7.376,0,0,1,1.914,2.486,7.981,7.981,0,0,1,.726,3.52V0h-4.8V-15.312a2.916,2.916,0,0,0-.924-2.31,4.384,4.384,0,0,0-2.2-1.034,6.826,6.826,0,0,0-1.342-.132,7.51,7.51,0,0,0-1.386.132,6.151,6.151,0,0,0-2.376.836V0h-4.84V-31.152h4.84v8.8A10.075,10.075,0,0,1-26.4-23.232Zm11,7.876a7.227,7.227,0,0,1,.77-3.432,7.5,7.5,0,0,1,2.046-2.442,9.093,9.093,0,0,1,2.9-1.5,11.059,11.059,0,0,1,3.3-.506,10.706,10.706,0,0,1,3.234.506,9.136,9.136,0,0,1,2.882,1.5,7.5,7.5,0,0,1,2.046,2.442,7.227,7.227,0,0,1,.77,3.432v7.92a7.36,7.36,0,0,1-.77,3.454A7.43,7.43,0,0,1-.264-1.518,8.8,8.8,0,0,1-3.146-.044,11.154,11.154,0,0,1-6.38.44a11.523,11.523,0,0,1-3.3-.484,8.761,8.761,0,0,1-2.9-1.474A7.429,7.429,0,0,1-14.63-3.982a7.36,7.36,0,0,1-.77-3.454Zm9.02-3.168a5.825,5.825,0,0,0-1.5.2,4.453,4.453,0,0,0-1.342.594,3.278,3.278,0,0,0-.968.99,2.546,2.546,0,0,0-.374,1.386v7.7a2.775,2.775,0,0,0,.374,1.43,3.583,3.583,0,0,0,.968,1.078,4.246,4.246,0,0,0,1.342.66,5.279,5.279,0,0,0,1.5.22,4.914,4.914,0,0,0,1.43-.22,4.289,4.289,0,0,0,1.32-.66,3.583,3.583,0,0,0,.968-1.078,2.775,2.775,0,0,0,.374-1.43v-7.7a2.546,2.546,0,0,0-.374-1.386,3.278,3.278,0,0,0-.968-.99,4.492,4.492,0,0,0-1.32-.594A5.419,5.419,0,0,0-6.38-18.524Zm19.756-4.708q.572,0,1.21.044a8.7,8.7,0,0,1,1.386.22V-18.7a6.569,6.569,0,0,0-1.76-.22H13.9a6.036,6.036,0,0,0-2.134.462,4.276,4.276,0,0,0-1.65,1.21,2.923,2.923,0,0,0-.66,1.936V0H4.62V-15.4a7.163,7.163,0,0,1,1.188-4.18,8.355,8.355,0,0,1,3.036-2.684,7.194,7.194,0,0,1,1.21-.462,11.731,11.731,0,0,1,1.342-.308q.66-.11,1.188-.154T13.376-23.232ZM24.552-4.048h.132A3.5,3.5,0,0,0,26.8-4.686,2.432,2.432,0,0,0,27.764-6.6a1.617,1.617,0,0,0-.33-1.034,2.731,2.731,0,0,0-.858-.7A5.523,5.523,0,0,0,25.41-8.8q-.638-.176-1.21-.308a23.593,23.593,0,0,1-2.618-.66A10.351,10.351,0,0,1,18.942-11a6.813,6.813,0,0,1-2.024-2.068A5.866,5.866,0,0,1,16.1-16.28a6.136,6.136,0,0,1,.792-3.212,6.888,6.888,0,0,1,2-2.156,8.2,8.2,0,0,1,2.728-1.21,12.39,12.39,0,0,1,2.97-.374,10.118,10.118,0,0,1,3.806.792,10.931,10.931,0,0,1,3.63,2.464l-2.9,3.168a6.135,6.135,0,0,0-2.354-1.452,8.065,8.065,0,0,0-2.662-.484,4.515,4.515,0,0,0-2.2.506A1.856,1.856,0,0,0,20.9-16.676a1.848,1.848,0,0,0,.286,1.3,2.937,2.937,0,0,0,.99.9,6.235,6.235,0,0,0,1.386.572q.77.22,1.474.352a19.567,19.567,0,0,1,2.706.638,7.851,7.851,0,0,1,2.4,1.21,6.384,6.384,0,0,1,1.738,2,6.068,6.068,0,0,1,.682,3.014,7.05,7.05,0,0,1-.66,3.146A6.437,6.437,0,0,1,30.14-1.32,7.851,7.851,0,0,1,27.588.022,9.809,9.809,0,0,1,24.6.484,11.293,11.293,0,0,1,21.89.154,10.073,10.073,0,0,1,19.338-.858a9.479,9.479,0,0,1-2.2-1.716,8.485,8.485,0,0,1-1.606-2.4L19.14-7.3A6.143,6.143,0,0,0,21.648-4.84,6.193,6.193,0,0,0,24.552-4.048ZM42.636.44a11.523,11.523,0,0,1-3.3-.484,8.761,8.761,0,0,1-2.9-1.474A7.5,7.5,0,0,1,34.386-3.96a7.227,7.227,0,0,1-.77-3.432V-15.4a7.36,7.36,0,0,1,.77-3.454A7.208,7.208,0,0,1,36.432-21.3a9,9,0,0,1,2.9-1.452,11.523,11.523,0,0,1,3.3-.484,11.154,11.154,0,0,1,3.234.484A8.777,8.777,0,0,1,48.73-21.3a7.318,7.318,0,0,1,2.024,2.442,7.36,7.36,0,0,1,.77,3.454v6.248H38.5v1.584a2.668,2.668,0,0,0,.352,1.386,3.79,3.79,0,0,0,.9,1.034,3.768,3.768,0,0,0,1.276.66,5.206,5.206,0,0,0,1.518.22,6.07,6.07,0,0,0,2.442-.506,3.516,3.516,0,0,0,1.782-1.782L50.82-4.224a7.942,7.942,0,0,1-1.606,2.046A10.68,10.68,0,0,1,47.19-.726a9.078,9.078,0,0,1-2.266.88A9.769,9.769,0,0,1,42.636.44ZM46.86-15.312a2.668,2.668,0,0,0-.352-1.386,3.268,3.268,0,0,0-.946-1.012,4.159,4.159,0,0,0-1.342-.616,5.993,5.993,0,0,0-1.54-.2,6.248,6.248,0,0,0-1.562.2,4.135,4.135,0,0,0-1.364.616,3.184,3.184,0,0,0-.946,1.034,2.593,2.593,0,0,0-.308,1.452v2.068h8.36ZM62.084.44q-4.268,0-6.534-2.09a7.425,7.425,0,0,1-2.266-5.742v-23.76h4.84v23.76a3.2,3.2,0,0,0,.946,2.354,4.125,4.125,0,0,0,3.014.946ZM75.636-22.792h5.148L72.688,0H67.716L59.664-22.792h5.1L69.344-9.5l.748,4.532H70.4L71.192-9.5Zm4.972-5.72a3.147,3.147,0,0,1,.9-2.288,3.035,3.035,0,0,1,2.266-.924,3.107,3.107,0,0,1,2.288.924,3.107,3.107,0,0,1,.924,2.288,3.107,3.107,0,0,1-.924,2.288,3.107,3.107,0,0,1-2.288.924,3.035,3.035,0,0,1-2.266-.924A3.147,3.147,0,0,1,80.608-28.512ZM86.152,0H81.18V-22.748h4.972Z" transform="translate(476.604 331.955)" fill="#0b1320"></path><path id="Path_1" data-name="Path 1" d="M354.938,311.743c8.557-1.363,12.087,6.648,10.588,13.846a85.314,85.314,0,0,1-2.639,8.486c4.43-1.647,7.742-6.709,7.9-12.65A14.044,14.044,0,0,0,361.9,308.02a14.422,14.422,0,0,0-15.162,3.033l-.739.817-.009.01a30.318,30.318,0,0,0-4.6,8.921c-1.36,4.7-2.358,9.505-3.751,14.194a41.61,41.61,0,0,1-3.055,7.432,5.49,5.49,0,0,1-5.545,3.259c6.221,2.9,12.837-11.036,14.253-16.312C345.482,321.215,349.07,312.678,354.938,311.743Z" transform="translate(0 -4.961)" fill="#ee3324"></path><path id="Path_2" data-name="Path 2" d="M390.841,341.385c-8.557,1.363-12.087-6.648-10.588-13.846a85.112,85.112,0,0,1,2.639-8.486c-4.43,1.647-7.742,6.709-7.9,12.65a14.044,14.044,0,0,0,8.887,13.405,14.423,14.423,0,0,0,15.162-3.033l.738-.817.01-.01a30.311,30.311,0,0,0,4.6-8.921c1.36-4.7,2.359-9.505,3.752-14.194A41.606,41.606,0,0,1,411.2,310.7a5.489,5.489,0,0,1,5.545-3.259c-6.221-2.9-12.837,11.036-14.253,16.312C400.3,331.913,396.709,340.45,390.841,341.385Z" transform="translate(-25.071 -4.961)" fill="#0b1320"></path></g></svg>